<?xml version="1.0" encoding="utf-8"?>
<!-- Generator: Adobe Illustrator 18.0.0, SVG Export Plug-In . SVG Version: 6.00 Build 0)  -->
<!DOCTYPE svg PUBLIC "-//W3C//DTD SVG 1.1//EN" "http://www.w3.org/Graphics/SVG/1.1/DTD/svg11.dtd">
<svg version="1.1" id="Layer_1" xmlns="http://www.w3.org/2000/svg" xmlns:xlink="http://www.w3.org/1999/xlink" x="0px" y="0px"
	 viewBox="0 0 1000 1000" enable-background="new 0 0 1000 1000" xml:space="preserve">
<path fill="#FF8326" d="M514.3,609.1c-102.8,20.8,115.4,255.5,143.9,120.2C750,649.2,708.4,562.9,514.3,609.1z"/>
<path fill="#FFC126" d="M872.7,427.8h-89.8C784.7,424.8,930.4,183.8,872.7,427.8z"/>
<path fill="#FFA526" d="M782.9,427.8C782.9,427.8,782.9,427.8,782.9,427.8l89.8,0c0,0,0,0,0,0C947.3,678.2,782.9,427.8,782.9,427.8z
	"/>
<path fill="#FFA526" d="M786.9,427.8h-630c0,0.1,0,0.1-0.1,0.2c7.8,22.1,17.2,42.7,27.9,61.7h116.1l-101,24.3
	c41.6,61.6,98.8,104.7,161.3,129.2c1.4,0.5,2.8,1.1,4.2,1.6c90.2,34.1,190.9,30,272.2-12.4c1.3-0.7,2.6-1.4,3.8-2.1
	c70.6-38.1,125.9-105.6,145.6-202.4C786.9,427.9,786.9,427.8,786.9,427.8z"/>
<path fill="#FFC126" d="M786.9,427.8h-630C276.3,182.5,716.4,179,786.9,427.8z"/>
<path fill="#FFFFFF" d="M661.8,636.6l-1,2.8c-7.9-2.6-15.7-5-23.4-7.1c-82.5-22.5-155.3-16.7-203.4-7.2
	c-29.1,5.7-52.6,13.4-68.8,19.6c-1.4-0.5-2.8-1-4.2-1.6c16.3-6.4,41.1-14.8,72.2-20.9c49.1-9.7,123.6-15.6,208,8.1
	C648.1,632.2,654.9,634.3,661.8,636.6z"/>
<path fill="#FF9415" d="M596.7,534.6C495.1,555.3,706,787.5,736.4,653.5C818.7,551.6,788.5,488.7,596.7,534.6z"/>
<path fill="#FFC126" d="M700.8,212.4c49.4,91.1-264,78.7-180.8-30.7C545.2,53.2,612.8,35.9,700.8,212.4z"/>
<text transform="matrix(1 0 0 1 71.7905 478.3394)" fill="#FFFFFF" stroke="#FFFFFF" stroke-miterlimit="10" font-family="'ArialMT'" font-size="82.1649">?</text>
<text transform="matrix(1 0 0 1 54.6743 542.8125)" fill="#FFFFFF" stroke="#FFFFFF" stroke-miterlimit="10" font-family="'ArialMT'" font-size="82.1649">??</text>
<ellipse transform="matrix(0.9887 0.15 -0.15 0.9887 62.7766 -48.361)" fill="#FFFFFF" cx="352" cy="392" rx="40.1" ry="11.7"/>
<line fill="none" x1="307" y1="401.3" x2="381.3" y2="415"/>
<line fill="none" x1="310.7" y1="406.3" x2="377" y2="418.3"/>
<line fill="none" x1="315.3" y1="411.3" x2="372.3" y2="421.3"/>
</svg>
