<?xml version="1.0" encoding="utf-8"?>
<!-- Generator: Adobe Illustrator 18.0.0, SVG Export Plug-In . SVG Version: 6.00 Build 0)  -->
<!DOCTYPE svg PUBLIC "-//W3C//DTD SVG 1.1//EN" "http://www.w3.org/Graphics/SVG/1.1/DTD/svg11.dtd">
<svg version="1.1" xmlns="http://www.w3.org/2000/svg" xmlns:xlink="http://www.w3.org/1999/xlink" x="0px" y="0px"
	 viewBox="0 0 1000 1000" enable-background="new 0 0 1000 1000" xml:space="preserve">
<g id="Layer_1" display="none">
	<path display="inline" fill="none" stroke="#000000" stroke-miterlimit="10" d="M615.5,822.1c100.4,28.9,54.6-155.4-51-106.3
		C432.8,730.9,421.8,770.7,615.5,822.1z"/>
	<path display="inline" fill="none" stroke="#000000" stroke-miterlimit="10" d="M377.8,330.9c-84.2-62,206.7-181.9,178-47.9
		C606.1,393.9,534,454.3,377.8,330.9z"/>
	<path display="inline" fill="none" stroke="#000000" stroke-miterlimit="10" d="M102.8,550.8c119.3,245.5,559.7,249,630.1,0
		C667.8,231.2,215.1,231.2,102.8,550.8z"/>
	<path display="inline" fill="none" stroke="#000000" stroke-miterlimit="10" d="M732.9,550.8c0,0,164.4,260.4,89.8,10
		C880.7,315.3,732.9,550.8,732.9,550.8z"/>
	<path display="inline" fill="none" stroke="#000000" stroke-miterlimit="10" d="M264.2,582.1c0,9.2,10.8,16.6,24.1,16.6
		s24.1-7.4,24.1-16.6"/>
	<path display="inline" fill="none" stroke="#000000" stroke-miterlimit="10" d="M298,340.6c0,0,142.5,75.7,321.3,16.1"/>
	<line display="inline" fill="none" stroke="#000000" stroke-miterlimit="10" x1="121.2" y1="498.3" x2="221.9" y2="467.8"/>
	<path display="inline" fill="none" stroke="#000000" stroke-miterlimit="10" d="M540.4,389.1c-72.7-74,232-148.5,182.3-20.5
		C733.9,499.2,673.7,534.4,540.4,389.1z"/>
	<polygon display="inline" stroke="#000000" stroke-miterlimit="10" points="227.6,714.4 236.4,726.7 249.7,719.4 240.7,731.6 
		251.8,741.9 237.4,737.1 231,750.9 231.1,735.7 216.1,733.9 230.5,729.3 	"/>
	<polygon display="inline" stroke="#000000" stroke-miterlimit="10" points="171.3,683.4 180.1,695.7 193.3,688.3 184.4,700.5 
		195.4,710.8 181.1,706.1 174.7,719.8 174.8,704.7 159.7,702.8 174.2,698.2 	"/>
	<polygon display="inline" stroke="#000000" stroke-width="0.7969" stroke-miterlimit="10" points="179.2,752.2 189.8,767 
		205.8,758.1 195,772.8 208.3,785.2 191,779.5 183.3,796 183.4,777.8 165.3,775.6 182.7,770 	"/>
	<path display="inline" fill="none" stroke="#000000" stroke-miterlimit="10" d="M102.8,550.8c119.3,245.5,559.7,249,630.1,0
		C667.8,231.2,215.1,231.2,102.8,550.8z"/>
	<path display="inline" fill="none" stroke="#000000" stroke-miterlimit="10" d="M732.9,550.8c0,0,164.4,260.4,89.8,10
		C880.7,315.3,732.9,550.8,732.9,550.8z"/>
</g>
<g id="Layer_10">
	<path fill="#C26D88" d="M377.8,330.9c-84.2-62,206.7-181.9,178-47.9C606.1,393.9,534,454.3,377.8,330.9z"/>
</g>
<g id="Layer_8">
	<path fill="#D68797" d="M615.5,822.1c100.4,28.9,54.6-155.4-51-106.3C432.8,730.9,421.8,770.7,615.5,822.1z"/>
</g>
<g id="Layer_7">
	<polygon stroke="#000000" stroke-miterlimit="10" points="227.6,714.4 236.4,726.7 249.7,719.4 240.7,731.6 251.8,741.9 
		237.4,737.1 231,750.9 231.1,735.7 216.1,733.9 230.5,729.3 	"/>
	<polygon stroke="#000000" stroke-miterlimit="10" points="171.3,683.4 180.1,695.7 193.3,688.3 184.4,700.5 195.4,710.8 
		181.1,706.1 174.7,719.8 174.8,704.7 159.7,702.8 174.2,698.2 	"/>
	<polygon stroke="#000000" stroke-width="0.7969" stroke-miterlimit="10" points="179.2,752.2 189.8,767 205.8,758.1 195,772.8 
		208.3,785.2 191,779.5 183.3,796 183.4,777.8 165.3,775.6 182.7,770 	"/>
</g>
<g id="Layer_2">
	<path fill="#B06D88" d="M732.9,550.8c0,0.1,0,0.1-0.1,0.2c-70.5,248.8-510.8,245.3-630-0.2H732.9z"/>
	<path fill="#CC8BA2" d="M732.9,550.8H102.8c5.5-15.5,11.7-30.3,18.7-44.3c3.4-6.8,7-13.5,10.7-20c39.3-68.2,96.5-116.5,160.3-144.9
		c0.9-0.4,1.8-0.8,2.7-1.2c100-43.6,215.9-38.7,304.4,14.9c0.8,0.5,1.6,1,2.5,1.5C665.5,396.2,714.6,460.8,732.9,550.8z"/>
</g>
<g id="Layer_11">
	<path fill="#FFFFFF" d="M615.8,352.1c-4.6,1.7-9.2,3.3-13.8,4.8c-38.8,12.8-78.8,20-119.1,21.5c-5.2,0.2-10.5,0.3-15.7,0.3
		c-30.9,0-61.8-3.3-92.2-9.9c-37.1-8.1-65.8-19.4-82.5-27c0.9-0.4,1.8-0.8,2.7-1.2c16.8,7.5,44.6,18.3,80.4,26.1
		c52.6,11.4,133.1,18.2,224-11.2c5.1-1.7,10.3-3.4,15.5-5.3L615.8,352.1z"/>
</g>
<g id="Layer_9">
	<path fill="#AE6D88" d="M540.4,389.1c-72.7-74,232-148.5,182.3-20.5C733.9,499.2,673.7,534.4,540.4,389.1z"/>
</g>
<g id="Layer_3">
	<path fill="#CC8BA2" d="M816.8,560.5l-89.8-9.8C730.7,544.5,884.5,290.5,816.8,560.5z"/>
	<path fill="#B06D88" d="M726.9,550.8C726.9,550.8,726.9,550.8,726.9,550.8C726.9,550.8,726.9,550.8,726.9,550.8c0,0,0-0.1,0.1-0.1
		l89.8,9.8c0,0.1,0,0.2-0.1,0.3C889.1,810.7,728.6,553.5,726.9,550.8z"/>
	<line fill="none" x1="837.9" y1="562.1" x2="822.8" y2="560.5"/>
	<polyline fill="none" points="733,550.7 732.9,550.7 723.1,549.6 	"/>
</g>
<g id="Layer_4" display="none">
	<path display="inline" fill="none" stroke="#FFFFFF" stroke-width="12" stroke-miterlimit="10" d="M264.2,582.1
		c0,9.2,10.8,16.6,24.1,16.6s24.1-7.4,24.1-16.6"/>
</g>
<g id="Layer_5">
	<polyline fill="#FFFFFF" points="132.2,486.6 231,456.7 235.6,472 121.5,506.5 	"/>
</g>
<g id="Layer_6">
	
		<rect x="251.1" y="601.3" transform="matrix(0.7071 0.7071 -0.7071 0.7071 510.8035 -21.8618)" fill="#FFFFFF" width="61.4" height="8.8"/>
	
		<rect x="277.8" y="575" transform="matrix(0.7071 0.7071 -0.7071 0.7071 510.9588 -22.1447)" fill="#FFFFFF" width="8.8" height="61.4"/>
</g>
</svg>
