<?xml version="1.0" encoding="utf-8"?>
<!-- Generator: Adobe Illustrator 18.0.0, SVG Export Plug-In . SVG Version: 6.00 Build 0)  -->
<!DOCTYPE svg PUBLIC "-//W3C//DTD SVG 1.1//EN" "http://www.w3.org/Graphics/SVG/1.1/DTD/svg11.dtd">
<svg version="1.1" id="Layer_4" xmlns="http://www.w3.org/2000/svg" xmlns:xlink="http://www.w3.org/1999/xlink" x="0px" y="0px"
	 viewBox="0 0 1000 1000" enable-background="new 0 0 1000 1000" xml:space="preserve">
<path fill="#15D44A" d="M498.3,645.1c-102.8,20.8,115.4,255.5,143.9,120.2C734,685.2,692.4,598.9,498.3,645.1z"/>
<g>
	<path fill="#73FFA3" d="M770.9,463.9c-0.1,0.3-0.1,0.6-0.2,0.8H141.1c-0.1-0.3-0.2-0.6-0.3-0.8
		C260.1,218.4,700.5,214.9,770.9,463.9z"/>
	<path fill="#15FF65" d="M770.7,464.8c-17.9,87-64.7,150.2-125.4,189.7c-0.5,0.3-1,0.6-1.5,1C552.5,714,430,719.1,325.9,671
		c-1.1-0.5-2.1-1-3.2-1.5c-54.2-25.8-103.2-66.1-139.9-121c-4.8-7.1-9.3-14.4-13.6-22c-10.8-19-20.3-39.6-28.1-61.7H770.7z"/>
	<path fill="#73FFA3" d="M860.9,464.8h-89.6C780.6,450.9,932.8,223,860.9,464.8z"/>
	<path fill="#15FF65" d="M770.9,465.4c0,0,0.2-0.2,0.4-0.7h89.6c-0.1,0.2-0.1,0.4-0.2,0.7C918.7,710.9,770.9,465.4,770.9,465.4z"/>
</g>
<path fill="#73FFA3" d="M684.8,244.4c49.4,91.1-264,78.7-180.8-30.7C529.2,85.2,596.8,67.9,684.8,244.4z"/>
<path fill="#FFFFFF" d="M645.8,652.9l-0.5,1.6l-0.4,1.3c-0.4-0.1-0.7-0.2-1.1-0.4c-91.8-30.6-173.7-24.6-226.3-14.1
	c-49.8,9.9-83.4,25.6-91.6,29.6c-1.1-0.5-2.1-1-3.2-1.5l-0.1-0.2c0.4-0.2,36.6-19.4,94.2-30.9C470,627.7,552.9,621.6,645.8,652.9z"
	/>
<path fill="#15E659" d="M580.7,570.6C479.1,591.3,690,823.5,720.4,689.5C802.7,587.6,772.5,524.7,580.7,570.6z"/>
<path fill="#FFFFFF" d="M296.6,502.7c-0.4,1.3-11.3,32.2-44.5,45.6c-10,4.1-20.8,6.1-32.5,6.1c-11.5,0-23.7-2-36.7-5.9
	c-4.8-7.1-9.3-14.4-13.6-22c30.2,13,56,15.4,76.6,7.1c26.4-10.6,35.5-35.8,35.6-36.1L296.6,502.7z"/>
<circle fill="#FFFFFF" cx="303.5" cy="435.4" r="20"/>
</svg>
