<?xml version="1.0" encoding="utf-8"?>
<!-- Generator: Adobe Illustrator 18.0.0, SVG Export Plug-In . SVG Version: 6.00 Build 0)  -->
<!DOCTYPE svg PUBLIC "-//W3C//DTD SVG 1.1//EN" "http://www.w3.org/Graphics/SVG/1.1/DTD/svg11.dtd">
<svg version="1.1" id="vin_onder_achter" xmlns="http://www.w3.org/2000/svg" xmlns:xlink="http://www.w3.org/1999/xlink" x="0px"
	 y="0px" viewBox="0 0 1000 1000" enable-background="new 0 0 1000 1000" xml:space="preserve">
<path fill="#4776BA" d="M499.9,668.2C396.6,689.1,615.9,924.9,644.5,789C736.6,708.5,694.9,621.8,499.9,668.2z"/>
<path fill="#4EC8F4" d="M773.7,486.3c-17.9,87.7-64.8,151.4-125.8,191.2c-1.2,0.8-2.4,1.6-3.6,2.3c-91.3,57.6-213.1,62.5-316.7,14.8
	c-2-0.9-3.9-1.8-5.9-2.8c-57.4-27.7-108.8-71.7-146-132c-4.6-7.5-9-15.1-13.1-23.1c-8.2-15.8-15.5-32.6-21.8-50.4
	c0.1-0.2,0.2-0.4,0.3-0.5h632.5C773.6,485.9,773.7,486.1,773.7,486.3z"/>
<path fill="#7BD2EF" d="M773.6,485.7H141.1C261.1,239.8,702.5,236.3,773.6,485.7z"/>
<path fill="#FFFFFF" d="M648.5,675.8l-0.6,1.6l-1.1,3.2c-0.8-0.3-1.7-0.6-2.5-0.9c-92.3-31.1-174.5-24.9-227.4-14.1
	c-45.2,9.2-77.2,23.1-89.3,28.9c-2-0.9-3.9-1.8-5.9-2.8c8.2-4.2,42.8-20.7,94-31.1C469.7,649.7,554,643.4,648.5,675.8z"/>
<path fill="#7BD2EF" d="M860.6,486.3h-90.2C770.4,486.3,935.6,234.8,860.6,486.3z"/>
<path fill="#4EC8F4" d="M770.4,486.3h90.2C918.9,732.9,770.4,486.3,770.4,486.3z"/>
<path fill="#7CD2EE" d="M687.2,268.2c49.6,91.5-265.2,79-181.6-30.8C530.9,108.3,598.8,90.9,687.2,268.2z"/>
<path fill="#4B9BD5" d="M582.7,593.5c-102,20.8,109.7,254,140.3,119.4C805.7,610.5,775.4,547.3,582.7,593.5z"/>
<path fill="#FFFFFF" d="M300.6,536.7v23.1H175.7c-4.6-7.5-9-15.1-13.1-23.1H300.6z"/>
<circle fill="#FFFFFF" cx="323.6" cy="427" r="33"/>
</svg>
